<svg id="Layer_1" data-name="Layer 1" xmlns="http://www.w3.org/2000/svg" viewBox="0 0 200 200"><defs><style>.cls-1,.cls-2{fill:none;stroke:#232f3e;stroke-width:2px;}.cls-1{stroke-linejoin:round;}.cls-2{stroke-miterlimit:10;}.cls-3{fill:#232f3e;}</style></defs><g id="Choose_AWS_application" data-name="Choose AWS application"><path class="cls-1" d="M46.71,142.83v7.55l.48.36c2.26,1.7,5,3.28,7.84,3.28h126c2.36,0,4.64-1.46,6.49-2.92l.9-.72-.09-7.55Z"/></g><path class="cls-1" d="M94,64.51h71.58a2.85,2.85,0,0,1,2.84,2.86v65.52a2.27,2.27,0,0,1-2.49,2.48H69.35a2.84,2.84,0,0,1-2.84-2.83V92.75"/><path class="cls-1" d="M94.35,58.3h78.73a2.84,2.84,0,0,1,2.84,2.83V140a2.84,2.84,0,0,1-2.84,2.83H61.89A2.84,2.84,0,0,1,59.05,140V92.44"/><path class="cls-1" d="M114.36,113.73a8.4,8.4,0,0,1,8.66-2l23.51-23.5a8.4,8.4,0,0,1,11.64-10.27l-4.84,4.83,3.86,3.85L162,81.78a8.41,8.41,0,0,1-10.27,11.65l-23.51,23.51A8.4,8.4,0,0,1,116.6,127.2l4.84-4.83-3.85-3.85-4.83,4.84A8.38,8.38,0,0,1,114.36,113.73Z"/><line class="cls-1" x1="26.73" y1="46.65" x2="41.65" y2="46.65"/><line class="cls-1" x1="16.79" y1="51.62" x2="29.22" y2="51.62"/><line class="cls-1" x1="20.52" y1="46.65" x2="13.06" y2="46.65"/><line class="cls-1" x1="37.92" y1="51.62" x2="31.7" y2="51.62"/><path class="cls-1" d="M36.19,61.57a26.6,26.6,0,1,0,7.07-18.06"/><path class="cls-1" d="M83,61.57A20.22,20.22,0,1,1,62.8,41.35"/><line class="cls-1" x1="26.73" y1="56.6" x2="34.19" y2="56.6"/><polyline class="cls-1" points="53.43 70.3 64.04 61.68 64.04 49.69"/><line class="cls-2" x1="127.43" y1="99.09" x2="83.92" y2="99.09"/><rect class="cls-3" x="76.46" y="97.84" width="2.49" height="2.49"/><line class="cls-2" x1="111.27" y1="107.79" x2="83.92" y2="107.79"/><rect class="cls-3" x="76.46" y="106.54" width="2.49" height="2.49"/><line class="cls-2" x1="139.86" y1="81.68" x2="87.65" y2="81.68"/><line class="cls-2" x1="129.92" y1="90.38" x2="83.92" y2="90.38"/><rect class="cls-3" x="76.46" y="89.14" width="2.49" height="2.49"/><line class="cls-2" x1="106.3" y1="116.49" x2="83.92" y2="116.49"/><rect class="cls-3" x="76.46" y="115.25" width="2.49" height="2.49"/><line class="cls-2" x1="106.3" y1="125.19" x2="83.92" y2="125.19"/><rect class="cls-3" x="76.46" y="123.95" width="2.49" height="2.49"/></svg>