<svg id="Layer_1" data-name="Layer 1" xmlns="http://www.w3.org/2000/svg" viewBox="0 0 200 200"><defs><style>.cls-1{fill:none;stroke:#232f3e;stroke-linejoin:round;stroke-width:2px;}</style></defs><polyline class="cls-1" points="101.86 148.09 48.08 148.09 48.08 37.76 103.1 96.21"/><polyline class="cls-1" points="135.34 130.47 151.92 148.09 135.34 148.09"/><polyline class="cls-1" points="101.09 132.52 65.35 132.52 65.35 87.87 101.09 125.84"/><line class="cls-1" x1="64.84" y1="55.56" x2="57.95" y2="62.15"/><line class="cls-1" x1="74" y1="64.72" x2="67.12" y2="71.31"/><line class="cls-1" x1="82.17" y1="74.04" x2="75.29" y2="80.62"/><line class="cls-1" x1="91.33" y1="83.2" x2="84.45" y2="89.79"/><line class="cls-1" x1="98.81" y1="92.92" x2="91.93" y2="99.51"/><path class="cls-1" d="M119.26,173.6s6.92-13.19,8.62-16.53l-17.48.08Z"/><path class="cls-1" d="M110,156.39l.41.76,17.48-.08c.24-.47.38-.74.38-.76l-.5-119-18.27.08Z"/><rect class="cls-1" x="109.46" y="26.44" width="18.27" height="10.91" transform="translate(-0.13 0.5) rotate(-0.24)"/><polyline class="cls-1" points="127.66 37.38 137.07 37.7 137.07 93.03"/></svg>